<svg width="77" height="77" viewBox="0 0 77 77" fill="none" xmlns="http://www.w3.org/2000/svg">
<g style="mix-blend-mode:luminosity" clip-path="url(#clip0_522_545)">
<path d="M18.0469 1.5H58.9531C68.0917 1.5 75.5 8.90829 75.5 18.0469V58.9531C75.5 68.0917 68.0917 75.5 58.9531 75.5H18.0469C8.90829 75.5 1.5 68.0917 1.5 58.9531V18.0469C1.5 8.90829 8.90829 1.5 18.0469 1.5Z" fill="#242938" stroke="#001E36" stroke-width="3"/>
<path d="M25.4896 33.6758C25.4896 34.4079 25.5687 35.0013 25.707 35.4368C25.8827 35.9268 26.0944 36.403 26.3405 36.8616C26.4394 37.0199 26.4788 37.1781 26.4788 37.3167C26.4788 37.5146 26.36 37.7126 26.1029 37.9102L24.8561 38.7415C24.6781 38.86 24.5 38.9196 24.3418 38.9196C24.1439 38.9196 23.946 38.8206 23.7481 38.6426C23.4815 38.356 23.243 38.0446 23.0358 37.7126C22.8146 37.3323 22.6099 36.9428 22.4222 36.5449C20.8788 38.3657 18.9396 39.2759 16.6045 39.2757C14.9424 39.2757 13.6165 38.8008 12.6468 37.8509C11.6774 36.901 11.1826 35.6348 11.1826 34.0517C11.1826 32.3695 11.7764 31.0042 12.9834 29.9753C14.1904 28.9463 15.7933 28.4316 17.8314 28.4316C18.5042 28.4316 19.1969 28.4912 19.929 28.5902C20.6611 28.6891 21.4131 28.8473 22.2047 29.0254V27.5807C22.2047 26.0768 21.888 25.028 21.2747 24.4147C20.6413 23.8011 19.5729 23.5045 18.0492 23.5045C17.3565 23.5045 16.6442 23.5837 15.9121 23.7617C15.18 23.9398 14.4674 24.1575 13.7748 24.4346C13.5497 24.5351 13.3185 24.621 13.0824 24.6917C12.944 24.7314 12.8447 24.7513 12.7656 24.7513C12.4889 24.7513 12.3499 24.5534 12.3499 24.1377V23.168C12.3499 22.8516 12.3897 22.6139 12.4886 22.4756C12.5876 22.3372 12.7656 22.1986 13.0426 22.0599C13.7352 21.7038 14.5664 21.407 15.5361 21.1696C16.5055 20.9121 17.5345 20.7936 18.623 20.7936C20.9779 20.7936 22.6992 21.3278 23.8076 22.3962C24.8958 23.4648 25.4499 25.0876 25.4499 27.2643V33.6758H25.4896ZM17.4557 36.6836C18.1084 36.6836 18.7813 36.5648 19.4938 36.3272C20.2061 36.0898 20.8392 35.6543 21.3737 35.0609C21.6901 34.6849 21.9277 34.2692 22.0462 33.7943C22.1647 33.3193 22.2441 32.7455 22.2441 32.0729V31.2415C21.6441 31.0956 21.0364 30.9833 20.4238 30.9053C19.8068 30.8272 19.1855 30.7876 18.5635 30.7865C17.2376 30.7865 16.2682 31.0439 15.6152 31.5781C14.9622 32.1123 14.6455 32.8643 14.6455 33.8538C14.6455 34.7838 14.8831 35.4762 15.3776 35.9512C15.8528 36.446 16.5455 36.6836 17.4557 36.6836ZM33.3451 38.8206C32.989 38.8206 32.7513 38.7611 32.5931 38.6227C32.4349 38.5039 32.2963 38.2269 32.1778 37.8509L27.5277 22.5547C27.4086 22.1589 27.3493 21.9017 27.3493 21.763C27.3493 21.4466 27.5075 21.2682 27.8242 21.2682H29.7634C30.1394 21.2682 30.3968 21.3278 30.5352 21.4662C30.6934 21.585 30.8122 21.862 30.931 22.238L34.2552 35.3379L37.3425 22.238C37.4414 21.8421 37.5599 21.5853 37.7184 21.4662C37.8767 21.3476 38.1537 21.2685 38.5098 21.2685H40.0928C40.4688 21.2685 40.7263 21.3278 40.8845 21.4662C41.0427 21.585 41.1813 21.862 41.2604 22.238L44.3871 35.4961L47.8103 22.238C47.9291 21.8421 48.0677 21.5853 48.2061 21.4662C48.3643 21.3476 48.6218 21.2685 48.9779 21.2685H50.8181C51.1348 21.2685 51.3129 21.4268 51.3129 21.763C51.3129 21.8623 51.293 21.9609 51.2731 22.0797C51.2536 22.1986 51.2139 22.3565 51.1348 22.5745L46.3659 37.8708C46.247 38.2666 46.1084 38.5239 45.9502 38.6426C45.792 38.7611 45.5345 38.8405 45.1983 38.8405H43.4964C43.1205 38.8405 42.8633 38.7809 42.7051 38.6426C42.5466 38.5039 42.4082 38.2467 42.3291 37.8509L39.2618 25.0876L36.2145 37.8311C36.1156 38.2269 35.9968 38.4841 35.8386 38.6227C35.68 38.7611 35.403 38.8206 35.0469 38.8206H33.3451ZM58.7731 39.3548C57.7442 39.3548 56.7152 39.236 55.7256 38.9987C54.7363 38.7611 53.9645 38.5039 53.4499 38.207C53.1335 38.029 52.9157 37.8311 52.8366 37.653C52.7596 37.4784 52.7192 37.2898 52.7178 37.099V36.0898C52.7178 35.6742 52.876 35.4762 53.1729 35.4762C53.2918 35.4762 53.4105 35.4961 53.529 35.5358C53.6478 35.5752 53.8259 35.6543 54.0238 35.7337C54.7228 36.041 55.4525 36.2731 56.2005 36.4261C56.9756 36.5835 57.7645 36.6631 58.5554 36.6637C59.8021 36.6637 60.7715 36.446 61.4444 36.0107C62.1172 35.5752 62.4733 34.9421 62.4733 34.1309C62.4733 33.5768 62.2953 33.1214 61.9392 32.7455C61.583 32.3695 60.9102 32.0332 59.9405 31.7165L57.0713 30.8262C55.6267 30.3711 54.558 29.6982 53.905 28.8079C53.252 27.9372 52.9157 26.9671 52.9157 25.9385C52.9157 25.1075 53.0938 24.3753 53.4499 23.7419C53.806 23.1087 54.281 22.5547 54.8747 22.1195C55.4684 21.6641 56.1413 21.3278 56.9326 21.0902C57.7243 20.8526 58.5554 20.7539 59.4261 20.7539C59.8614 20.7539 60.3164 20.7738 60.752 20.833C61.2071 20.8923 61.6224 20.9714 62.0381 21.0508C62.4339 21.1497 62.8099 21.2487 63.166 21.3675C63.5222 21.486 63.7992 21.6047 63.9971 21.7236C64.2741 21.8818 64.472 22.04 64.5908 22.2181C64.7095 22.3765 64.7689 22.5943 64.7689 22.8714V23.8014C64.7689 24.2168 64.6107 24.4346 64.3138 24.4346C64.1553 24.4346 63.8981 24.3555 63.5619 24.1969C62.4339 23.6826 61.1674 23.4254 59.7624 23.4254C58.6345 23.4254 57.7442 23.6035 57.1306 23.9795C56.517 24.3555 56.2005 24.9294 56.2005 25.7406C56.2005 26.2946 56.3985 26.7695 56.7943 27.1455C57.1901 27.5215 57.9222 27.8975 58.971 28.2337L61.7809 29.124C63.2054 29.5794 64.2347 30.2126 64.848 31.0241C65.4613 31.8356 65.7582 32.7653 65.7582 33.7943C65.7582 34.6452 65.5801 35.417 65.2438 36.0898C64.8877 36.7627 64.4128 37.3561 63.7992 37.8311C63.1859 38.3258 62.4535 38.682 61.6029 38.9394C60.7123 39.2165 59.7822 39.3548 58.7731 39.3548Z" fill="white"/>
<path fill-rule="evenodd" clip-rule="evenodd" d="M62.5136 48.972C56.0032 53.7806 46.5445 56.3333 38.4114 56.3333C27.0136 56.3333 16.7431 52.1182 8.98629 45.1133C8.37269 44.5592 8.92703 43.8073 9.65913 44.2425C18.0494 49.1104 28.3987 52.0589 39.1041 52.0589C46.3268 52.0589 54.262 50.555 61.5638 47.4681C62.652 46.9733 63.582 48.1803 62.5136 48.972Z" fill="#FF9900"/>
<path fill-rule="evenodd" clip-rule="evenodd" d="M65.2242 45.8851C64.3931 44.8164 59.7232 45.3704 57.6057 45.6276C56.9726 45.707 56.8736 45.1527 57.4475 44.7373C61.1676 42.1253 67.2821 42.8773 67.9947 43.7477C68.7069 44.6383 67.7968 50.7529 64.314 53.6816C63.7795 54.1367 63.2652 53.8991 63.5025 53.3057C64.2942 51.3467 66.0553 46.9336 65.2242 45.8851Z" fill="#FF9900"/>
</g>
<defs>
<clipPath id="clip0_522_545">
<rect width="77" height="77" fill="white"/>
</clipPath>
</defs>
</svg>
