<svg width="95" height="95" viewBox="0 0 95 95" fill="none" xmlns="http://www.w3.org/2000/svg">
<g clip-path="url(#clip0_137_9)">
<path d="M72.7344 0H22.2656C9.96866 0 0 9.96866 0 22.2656V72.7344C0 85.0313 9.96866 95 22.2656 95H72.7344C85.0313 95 95 85.0313 95 72.7344V22.2656C95 9.96866 85.0313 0 72.7344 0Z" fill="#242938"/>
<path d="M35.1329 12.6179H57.095L34.2964 80.1681C34.062 80.8622 33.6158 81.4653 33.0207 81.8926C32.4256 82.3199 31.7115 82.5499 30.9789 82.5502H13.887C13.0494 82.5503 12.2396 82.2497 11.605 81.7031C10.9704 81.1565 10.5531 80.4001 10.4292 79.5718C10.3466 79.0229 10.3962 78.4622 10.5739 77.9364L31.8149 15C32.0493 14.3057 32.4955 13.7024 33.0907 13.2749C33.6859 12.8475 34.4001 12.6174 35.1329 12.6172V12.6179Z" fill="url(#paint0_linear_137_9)"/>
<path d="M67.0471 57.9259H32.2207C31.8969 57.9254 31.5804 58.0225 31.3127 58.2045C31.0449 58.3866 30.8382 58.6451 30.7196 58.9464C30.6006 59.2475 30.5752 59.5776 30.6466 59.8934C30.718 60.2092 30.883 60.4962 31.12 60.7169L53.4988 81.6046C54.1503 82.2124 55.0081 82.5503 55.899 82.5502H75.6193L67.0471 57.9259Z" fill="#0078D4"/>
<path d="M35.1334 12.6179C34.3925 12.6151 33.6702 12.8493 33.0718 13.2862C32.4735 13.7231 32.0305 14.3398 31.8076 15.0464L10.6004 77.8788C10.4112 78.4067 10.3518 78.9724 10.4274 79.528C10.5029 80.0836 10.7111 80.6129 11.0344 81.0711C11.3577 81.5293 11.7865 81.9029 12.2847 82.1603C12.7829 82.4178 13.3357 82.5515 13.8964 82.5502H31.4295C32.0825 82.4334 32.6927 82.1454 33.198 81.7156C33.7033 81.2859 34.0854 80.7297 34.3055 80.1039L38.5348 67.6404L53.6413 81.7301C54.2743 82.2537 55.0683 82.5434 55.8898 82.5502H75.5366L66.9198 57.9262L41.8008 57.9322L57.1745 12.6179H35.1334Z" fill="url(#paint1_linear_137_9)"/>
<path d="M63.1839 14.9966C62.9501 14.3033 62.5046 13.7008 61.9102 13.274C61.3158 12.8473 60.6025 12.6178 59.8708 12.6179H35.3945C36.1263 12.6178 36.8396 12.8473 37.434 13.274C38.0284 13.7008 38.4738 14.3033 38.7077 14.9966L59.9494 77.9356C60.1268 78.4617 60.1765 79.0224 60.0943 79.5715C60.0122 80.1205 59.8006 80.6421 59.477 81.0933C59.1531 81.5441 58.7266 81.9115 58.2326 82.165C57.7387 82.4184 57.1915 82.5507 56.6363 82.5509H81.1133C81.6684 82.5506 82.2155 82.4182 82.7094 82.1647C83.2033 81.9112 83.6298 81.5438 83.9536 81.0929C84.2774 80.6419 84.489 80.1203 84.5711 79.5713C84.6532 79.0222 84.6033 78.4616 84.4257 77.9356L63.1839 14.9966Z" fill="url(#paint2_linear_137_9)"/>
</g>
<defs>
<linearGradient id="paint0_linear_137_9" x1="43.1374" y1="17.8003" x2="20.3296" y2="85.1809" gradientUnits="userSpaceOnUse">
<stop stop-color="#114A8B"/>
<stop offset="1" stop-color="#0669BC"/>
</linearGradient>
<linearGradient id="paint1_linear_137_9" x1="50.2625" y1="49.2015" x2="44.9867" y2="50.9853" gradientUnits="userSpaceOnUse">
<stop stop-opacity="0.3"/>
<stop offset="0.071" stop-opacity="0.2"/>
<stop offset="0.321" stop-opacity="0.1"/>
<stop offset="0.623" stop-opacity="0.05"/>
<stop offset="1" stop-opacity="0"/>
</linearGradient>
<linearGradient id="paint2_linear_137_9" x1="47.3608" y1="15.8349" x2="72.397" y2="82.5364" gradientUnits="userSpaceOnUse">
<stop stop-color="#3CCBF4"/>
<stop offset="1" stop-color="#2892DF"/>
</linearGradient>
<clipPath id="clip0_137_9">
<rect width="95" height="95" fill="white"/>
</clipPath>
</defs>
</svg>
