<svg width="69" height="57" viewBox="0 0 69 57" fill="none" xmlns="http://www.w3.org/2000/svg">
<path d="M4.65047 23.7917H2.70825V25.7917V31.2083V33.2083H4.65047C4.65281 33.2086 4.65537 33.209 4.65816 33.2094C4.70118 33.2155 4.79448 33.2324 4.92215 33.275C5.17055 33.3578 5.56961 33.544 6.00237 33.9767C6.84918 34.8235 8.12492 36.9333 8.12492 42.0417V44.75C8.12492 47.4353 9.19166 50.0107 11.0905 51.9095C12.9893 53.8083 15.5646 54.875 18.2499 54.875H50.7499C53.4352 54.875 56.0106 53.8083 57.9094 51.9095C59.8082 50.0107 60.8749 47.4353 60.8749 44.75V42.0417C60.8749 36.9333 62.1507 34.8235 62.9975 33.9767C63.4302 33.544 63.8293 33.3578 64.0777 33.275C64.2054 33.2324 64.2987 33.2155 64.3417 33.2094C64.3445 33.209 64.347 33.2086 64.3494 33.2083H66.2916V31.2083V25.7917V23.7917H64.3494C64.347 23.7914 64.3445 23.791 64.3417 23.7906C64.2987 23.7845 64.2054 23.7676 64.0777 23.725C63.8293 23.6422 63.4302 23.456 62.9975 23.0233C62.1507 22.1765 60.8749 20.0667 60.8749 14.9583V12.25C60.8749 9.56468 59.8082 6.98935 57.9094 5.09054C56.0106 3.19174 53.4352 2.125 50.7499 2.125H18.2499C15.5646 2.125 12.9893 3.19174 11.0905 5.09054C9.19166 6.98935 8.12492 9.56468 8.12492 12.25V14.9583C8.12492 20.0667 6.84918 22.1765 6.00237 23.0233C5.56961 23.456 5.17055 23.6422 4.92215 23.725C4.79448 23.7676 4.70118 23.7845 4.65816 23.7906C4.65537 23.791 4.65281 23.7914 4.65047 23.7917ZM51.4583 14.9583C51.4583 20.7609 52.7448 25.2912 55.2873 28.5C52.7448 31.7088 51.4583 36.2391 51.4583 42.0417V44.75C51.4583 44.9379 51.3836 45.118 51.2508 45.2509C51.118 45.3837 50.9378 45.4583 50.7499 45.4583H18.2499C18.0621 45.4583 17.8819 45.3837 17.7491 45.2509C17.6162 45.118 17.5416 44.9379 17.5416 44.75V42.0417C17.5416 36.2391 16.2551 31.7088 13.7126 28.5C16.2551 25.2912 17.5416 20.7609 17.5416 14.9583V12.25C17.5416 12.0621 17.6162 11.882 17.7491 11.7491C17.8819 11.6163 18.0621 11.5417 18.2499 11.5417H50.7499C50.9378 11.5417 51.118 11.6163 51.2508 11.7491C51.3836 11.882 51.4583 12.0621 51.4583 12.25V14.9583ZM25.0208 12.9583H23.0208V14.9583V42.0417V44.0417H25.0208H38.5616C38.5619 44.0417 38.5621 44.0417 38.5624 44.0417C40.7529 44.0424 42.8846 43.3327 44.6375 42.0191C46.3907 40.7054 47.6705 38.8584 48.2847 36.7555C48.899 34.6526 48.8146 32.4072 48.0442 30.3563C47.481 28.8569 46.5733 27.5206 45.4041 26.4498C45.7934 25.3457 45.9897 24.1781 45.9798 22.9985C45.965 21.2307 45.4876 19.4976 44.595 17.9716C43.7025 16.4455 42.4259 15.1798 40.8924 14.3003C39.3589 13.4208 37.6219 12.9581 35.8541 12.9583C35.854 12.9583 35.8539 12.9583 35.8538 12.9583H25.0208ZM32.4374 23.7917V22.375H35.8541C36.042 22.375 36.2221 22.4496 36.355 22.5825C36.4878 22.7153 36.5624 22.8955 36.5624 23.0833C36.5624 23.2712 36.4878 23.4514 36.355 23.5842C36.2221 23.717 36.042 23.7917 35.8541 23.7917H32.4374ZM32.4374 33.2083H38.5624C38.7503 33.2083 38.9305 33.283 39.0633 33.4158C39.1961 33.5486 39.2708 33.7288 39.2708 33.9167C39.2708 34.1045 39.1961 34.2847 39.0633 34.4175C38.9305 34.5504 38.7503 34.625 38.5624 34.625H32.4374V33.2083Z" fill="#A259FF" stroke="#001E36" stroke-width="4"/>
</svg>
