<svg width="58" height="57" viewBox="0 0 58 57" fill="none" xmlns="http://www.w3.org/2000/svg">
<path d="M41.6669 2.52036H15.5391C8.11945 2.52036 2.01221 8.38932 2.01221 15.7415V41.1761C2.01221 48.5283 8.11945 54.3973 15.5391 54.3973H41.6669C49.0866 54.3973 55.1938 48.5283 55.1938 41.1761V15.7415C55.1938 8.38932 49.0866 2.52036 41.6669 2.52036Z" fill="#092E20" stroke="#001E36" stroke-width="4"/>
<path d="M25.6615 14.0583H31.1589V38.8291C28.3388 39.3503 26.2684 39.5588 24.0197 39.5588C17.3083 39.5586 13.8101 36.6052 13.8101 30.9408C13.8101 25.4849 17.5227 21.9407 23.2698 21.9407C24.1622 21.9407 24.8404 22.0099 25.6615 22.2184V14.0583ZM25.6615 26.5271C25.019 26.319 24.4836 26.2494 23.8054 26.2494C21.0211 26.2494 19.4145 27.9174 19.4145 30.8362C19.4145 33.686 20.9497 35.2497 23.7697 35.2497C24.3762 35.2497 24.8763 35.2149 25.6615 35.1109V26.5271Z" fill="white"/>
<path d="M39.9044 22.3227V34.728C39.9044 39.0025 39.5831 41.0526 38.6193 42.825C37.7267 44.528 36.5487 45.6051 34.1213 46.7867L29.0166 44.4235C31.444 43.3116 32.622 42.339 33.3715 40.8441C34.157 39.3152 34.4072 37.5429 34.4072 32.8864V22.3225L39.9044 22.3227ZM34.4072 14.0867H39.9044V19.5772H34.4072V14.0867Z" fill="white"/>
</svg>
