<svg width="83" height="83" viewBox="0 0 83 83" fill="none" xmlns="http://www.w3.org/2000/svg">
<path d="M44.8201 14.7037C46.3616 14.7037 47.3386 16.0086 47.3386 17.2916V22.6871C47.3385 23.1073 47.2327 23.5161 47.0427 23.8795C47.2329 24.2432 47.3386 24.6524 47.3386 25.0729V30.3004H53.2927C54.7879 30.3004 55.8464 31.554 55.8464 32.8541V38.024C56.0057 38.0003 56.1754 37.9757 56.3513 37.943C56.5327 37.9093 56.7119 37.8702 56.8875 37.8297C56.087 35.6608 55.9697 33.2942 56.5593 30.8824C56.9019 29.1217 57.6828 27.4711 58.615 26.0729L59.2371 25.1393L60.2839 23.569L61.9128 24.5231L62.9158 25.111L62.9246 25.1168L62.9333 25.1217C63.1527 25.2533 66.8963 27.5069 68.3708 32.0201C68.8278 31.982 69.2893 31.9606 69.7546 31.9606C71.8697 31.9606 73.4781 32.344 74.6287 32.7848C75.2017 33.0043 75.6522 33.2346 75.9871 33.4303C76.1455 33.5229 76.2914 33.6171 76.3933 33.6852L76.5359 33.7838L76.575 33.8102L76.613 33.8375L77.2703 34.3219L78.4412 35.1852L77.9812 36.5641L77.7039 37.3942L77.6824 37.4596L77.656 37.524C77.0783 38.9269 76.2667 40.185 75.1228 41.2408C73.5314 42.8089 70.8189 44.5173 66.7205 44.694C65.1638 48.4758 62.9961 52.7954 59.5193 56.6696C57.2453 59.3037 54.5403 61.5328 51.5193 63.2604C47.8936 65.3471 43.9407 66.7732 39.8455 67.5045L39.8445 67.5035C36.9217 68.0439 33.9683 68.2965 31.1248 68.2965C24.6301 68.2965 18.6348 67.1027 14.7947 64.7516L14.7849 64.7448C11.3262 62.598 8.72825 59.1602 7.05151 54.7262L7.04663 54.7135C5.57091 50.7289 4.91675 46.5127 4.91675 42.3297C4.91689 40.0357 6.76019 38.151 9.06128 38.151H10.7615V32.8541C10.7615 31.4385 11.8986 30.3007 13.3142 30.3004H19.1648V25.0729C19.1648 24.4112 19.4091 23.7313 19.9421 23.2213C20.4615 22.7245 21.118 22.5192 21.7185 22.5192H27.8054C28.2533 22.5192 28.6729 22.6341 29.0378 22.8346C29.4009 22.6331 29.8181 22.5192 30.2605 22.5192H36.1804V17.2916C36.1804 16.6662 36.3877 15.9979 36.8904 15.4723C37.388 14.9522 38.0524 14.7037 38.699 14.7037H44.8201Z" fill="#001E36" stroke="#001E36" stroke-width="4"/>
<path d="M75.4263 35.4479C75.2188 35.3096 73.4897 33.9608 69.7547 33.9608C68.7863 33.9608 67.818 34.0646 66.8497 34.2375C66.1234 29.3958 62.0772 26.9404 61.9042 26.8367L60.9013 26.2487L60.2788 27.1825C59.4488 28.4275 58.7917 29.8454 58.5151 31.2979C57.8234 34.0646 58.2384 36.6929 59.6563 38.9408C57.9617 39.9092 55.1951 40.1512 54.6072 40.1512H9.06091C7.88508 40.1512 6.91675 41.1196 6.91675 42.33C6.91675 46.3071 7.53925 50.2842 8.92258 54.0192C10.4788 58.1346 12.8305 61.1779 15.8392 63.0454C19.2284 65.1204 24.7963 66.2962 31.1251 66.2962C33.8572 66.2962 36.693 66.0542 39.4942 65.5354C43.3676 64.8437 47.1026 63.495 50.5263 61.5237C53.3619 59.9023 55.8998 57.8088 58.0309 55.3333C61.6622 51.2871 63.8063 46.6875 65.3626 42.7104H66.0197C69.9622 42.7104 72.4176 41.1196 73.7663 39.7708C74.6655 38.9408 75.3226 37.9379 75.8067 36.7621L76.0834 35.9321L75.4263 35.4479ZM13.3147 38.8717H19.4013C19.678 38.8717 19.9547 38.6296 19.9547 38.3183V32.8542C19.9547 32.5775 19.7126 32.3008 19.4013 32.3008H13.3147C13.0034 32.3008 12.7613 32.5429 12.7613 32.8542V38.3183C12.7959 38.6296 13.0034 38.8717 13.3147 38.8717ZM21.7184 38.8717H27.8051C28.0817 38.8717 28.3584 38.6296 28.3584 38.3183V32.8542C28.3584 32.5775 28.1163 32.3008 27.8051 32.3008H21.7184C21.4072 32.3008 21.1651 32.5429 21.1651 32.8542V38.3183C21.1997 38.6296 21.4072 38.8717 21.7184 38.8717ZM30.2605 38.8717H36.3126C36.6584 38.8717 36.9005 38.6296 36.9005 38.3183V32.8542C36.9005 32.5775 36.693 32.3008 36.3126 32.3008H30.2605C29.9838 32.3008 29.7417 32.5429 29.7417 32.8542V38.3183C29.7417 38.6296 29.9492 38.8717 30.2605 38.8717ZM38.6988 38.8717H44.8201C45.0967 38.8717 45.3388 38.6296 45.3388 38.3183V32.8542C45.3388 32.5775 45.1313 32.3008 44.8201 32.3008H38.6988C38.4222 32.3008 38.1801 32.5429 38.1801 32.8542V38.3183C38.1801 38.6296 38.4222 38.8717 38.6988 38.8717ZM21.7184 31.125H27.8051C28.0817 31.125 28.3584 30.8137 28.3584 30.5025V25.0729C28.3584 24.7617 28.1163 24.5196 27.8051 24.5196H21.7184C21.4072 24.5196 21.1651 24.7271 21.1651 25.0729V30.5025C21.1997 30.8137 21.4072 31.125 21.7184 31.125ZM30.2605 31.125H36.3126C36.6584 31.125 36.9005 30.8137 36.9005 30.5025V25.0729C36.9005 24.7617 36.693 24.5196 36.3126 24.5196H30.2605C29.9838 24.5196 29.7417 24.7271 29.7417 25.0729V30.5025C29.7417 30.8137 29.9492 31.125 30.2605 31.125ZM38.6988 31.125H44.8201C45.0967 31.125 45.3388 30.8137 45.3388 30.5025V25.0729C45.3388 24.7617 45.0967 24.5196 44.8201 24.5196H38.6988C38.4222 24.5196 38.1801 24.7271 38.1801 25.0729V30.5025C38.1801 30.8137 38.4222 31.125 38.6988 31.125ZM38.6988 23.24H44.8201C45.0967 23.24 45.3388 22.9979 45.3388 22.6867V17.2917C45.3388 16.9458 45.0967 16.7037 44.8201 16.7037H38.6988C38.4222 16.7037 38.1801 16.9112 38.1801 17.2917V22.6867C38.1801 22.9633 38.4222 23.24 38.6988 23.24ZM47.2063 38.8717H53.293C53.6042 38.8717 53.8463 38.6296 53.8463 38.3183V32.8542C53.8463 32.5775 53.6042 32.3008 53.293 32.3008H47.2063C46.9297 32.3008 46.6876 32.5429 46.6876 32.8542V38.3183C46.6876 38.6296 46.9297 38.8717 47.2063 38.8717Z" fill="#0288D1"/>
</svg>
