<svg width="66" height="64" viewBox="0 0 66 64" fill="none" xmlns="http://www.w3.org/2000/svg">
<path d="M61.2609 28.6741L61.2607 28.674L36.1588 4.33364C36.1588 4.33357 36.1587 4.33349 36.1586 4.33341C34.3257 2.55515 31.3648 2.55601 29.5305 4.3331L29.5301 4.33348L24.318 9.3885L23.5778 10.1064L24.318 10.8242L30.9301 17.236L31.3635 17.6562L31.9373 17.4685C33.1422 17.0742 34.5104 17.3436 35.4532 18.2575C36.3961 19.1728 36.6562 20.4818 36.2523 21.6184L36.0371 22.2239L36.4983 22.6712L42.8709 28.8511L43.3074 29.2744L43.8841 29.0816C45.0931 28.6774 46.4756 28.9443 47.4218 29.8639L47.4229 29.8649C48.7388 31.14 48.7391 33.1938 47.4227 34.47L47.4224 34.4702C47.1075 34.7758 46.7319 35.0197 46.3164 35.1866C45.9008 35.3536 45.4544 35.4399 45.0028 35.4399C44.5513 35.4399 44.1048 35.3536 43.6893 35.1866C43.2737 35.0197 42.8982 34.7758 42.5832 34.4702C42.1104 34.0112 41.7918 33.4306 41.6623 32.8032C41.5329 32.176 41.5973 31.5253 41.8489 30.9317L42.1164 30.3007L41.6244 29.8236L35.6818 24.061L33.9858 22.4164L33.9856 24.7789L33.9847 39.9453L33.9847 40.576L34.5539 40.8478C34.8883 41.0074 35.1923 41.2181 35.4544 41.4709C36.7691 42.7457 36.7701 44.7991 35.4534 46.0783C34.1198 47.3699 31.9474 47.3691 30.6165 46.0779C29.3003 44.7991 29.3013 42.7458 30.6164 41.4705C30.9342 41.1625 31.3135 40.917 31.7331 40.7496L32.3626 40.4985V39.8208V24.514V23.8349L31.7314 23.5845C31.3125 23.4182 30.9341 23.1732 30.6178 22.8652L30.6161 22.8635C29.618 21.8963 29.3817 20.487 29.89 19.3063L30.1627 18.673L29.6677 18.193L23.1489 11.8718L22.4528 11.1967L21.7567 11.8718L4.54462 28.5613L4.54449 28.5615C3.65937 29.42 3.15625 30.591 3.15625 31.8187C3.15625 33.0464 3.65937 34.2174 4.54449 35.0759L4.54462 35.076L29.6472 59.4166C31.4809 61.1948 34.4407 61.194 36.276 59.4171L36.2766 59.4166L61.2612 35.1891L61.2615 35.1888C62.1464 34.33 62.6493 33.159 62.6492 31.9314C62.649 30.7037 62.1459 29.5328 61.2609 28.6741Z" fill="#F34F29" stroke="#001E36" stroke-width="2"/>
</svg>
