<svg width="81" height="77" viewBox="0 0 81 77" fill="none" xmlns="http://www.w3.org/2000/svg">
<g clip-path="url(#clip0_521_532)">
<path d="M46.1795 22.099L46.1042 3H34.8205L34.8958 22.099L40.5375 29.4122L46.1795 22.099ZM34.8958 54.83V74H46.1795V54.83L40.5375 47.5171L34.8958 54.83Z" fill="white"/>
<path d="M46.1795 54.83L58.0652 70.308L67.1675 64.0599L55.2817 48.5822L46.1795 45.8129V54.83ZM34.8958 22.099L22.9348 6.62093L13.8325 12.869L25.7183 28.347L34.8958 31.116L34.8958 22.099Z" fill="#00F2E6"/>
<path d="M25.7183 28.347L6.46025 22.454L3 32.5359L22.2577 38.5L31.36 35.6599L25.7183 28.347ZM49.64 41.269L55.2817 48.5822L74.5397 54.4749L78 44.393L58.7423 38.5L49.64 41.269Z" fill="#00B9F1"/>
<path d="M58.7423 38.5L78 32.5359L74.5397 22.454L55.2817 28.347L49.64 35.6599L58.7423 38.5ZM22.2577 38.5L3 44.393L6.46025 54.4749L25.7183 48.5822L31.36 41.269L22.2577 38.5Z" fill="#D63AFF"/>
<path d="M25.7183 48.5822L13.8325 64.0599L22.9348 70.308L34.8958 54.83L34.8958 45.8129L25.7183 48.5822ZM55.2817 28.347L67.1675 12.869L58.0652 6.62093L46.1795 22.099V31.116L55.2817 28.347Z" fill="#FB015B"/>
<path d="M47.6042 2.99409L47.5983 1.5H46.1042H34.8205H33.3146L33.3205 3.00591L33.3784 17.6823L24.1217 5.70372L23.2547 4.58189L22.0859 5.38425L12.9836 11.6323L11.6792 12.5277L12.6428 13.7826L21.6715 25.5401L6.89917 21.0197L5.51231 20.5953L5.04149 21.9671L1.58124 32.049L1.07932 33.5114L2.55625 33.9688L17.1596 38.4914L2.56108 42.9587L1.07763 43.4126L1.58124 44.88L5.04149 54.9619L5.5123 56.3336L6.89915 55.9093L21.6715 51.3891L12.6428 63.1464L11.6792 64.4012L12.9836 65.2966L22.0859 71.5447L23.2547 72.347L24.1217 71.2252L33.3958 59.2241V74V75.5H34.8958H46.1795H47.6795V74V59.2462L56.8755 71.2216L57.7417 72.3495L58.9141 71.5447L68.0164 65.2966L69.3208 64.4012L68.3572 63.1464L59.3285 51.3891L74.1008 55.9093L75.4877 56.3336L75.9585 54.9619L79.4188 44.88L79.9224 43.4126L78.4389 42.9587L63.8404 38.4914L78.4438 33.9688L79.9207 33.5114L79.4188 32.049L75.9585 21.9671L75.4877 20.5953L74.1008 21.0197L59.3285 25.5401L68.3572 13.7826L69.3208 12.5277L68.0164 11.6323L58.9141 5.38425L57.7417 4.57944L56.8755 5.70735L47.6622 17.7053L47.6042 2.99409ZM29.7629 31.1342L34.4625 32.5521L36.3958 33.1354V31.116L36.3958 26.4991L39.3498 30.3284L40.5375 31.8679L41.7251 30.3284L44.6795 26.4989V31.116V33.1402L46.6161 32.5511L51.2258 31.1488L48.4524 34.7437L47.1361 36.45L49.1933 37.0919L53.6481 38.4818L49.2035 39.8339L47.126 40.4659L48.4524 42.1852L51.2258 45.7803L46.6161 44.3779L44.6795 43.7887V45.8129V50.4301L41.7251 46.6008L40.5375 45.0614L39.3499 46.6008L36.3958 50.4299L36.3958 45.8129V43.7935L34.4625 44.3769L29.7629 45.7949L32.5476 42.1852L33.874 40.4659L31.7965 39.8339L27.3519 38.4818L31.8067 37.0919L33.8639 36.45L32.5476 34.7437L29.7629 31.1342Z" stroke="#001E36" stroke-width="3"/>
</g>
<defs>
<clipPath id="clip0_521_532">
<rect width="81" height="77" fill="white"/>
</clipPath>
</defs>
</svg>
