<svg width="99" height="98" viewBox="0 0 99 98" fill="none" xmlns="http://www.w3.org/2000/svg">
<g clip-path="url(#clip0_79_6)">
<path d="M50 4.5C74.5767 4.5 94.5 24.4233 94.5 49C94.5 73.5767 74.5767 93.5 50 93.5C25.4233 93.5 5.5 73.5767 5.5 49C5.5 24.4233 25.4233 4.5 50 4.5Z" fill="black" stroke="#001E36" stroke-width="5"/>
<path d="M81.0765 84.2603L39.107 30.2H31.2V67.7846H37.5259V38.2333L76.1099 88.0857C77.8487 86.9225 79.508 85.6445 81.0765 84.2603Z" fill="url(#paint0_linear_79_6)"/>
<path d="M63.0557 30.2H69.3221V67.8H63.0557V30.2Z" fill="url(#paint1_linear_79_6)"/>
</g>
<defs>
<linearGradient id="paint0_linear_79_6" x1="59.9221" y1="62.8388" x2="78.4609" y2="85.8165" gradientUnits="userSpaceOnUse">
<stop stop-color="white"/>
<stop offset="1" stop-color="white" stop-opacity="0"/>
</linearGradient>
<linearGradient id="paint1_linear_79_6" x1="66.1887" y1="30.2" x2="66.0838" y2="57.8124" gradientUnits="userSpaceOnUse">
<stop stop-color="white"/>
<stop offset="1" stop-color="white" stop-opacity="0"/>
</linearGradient>
<clipPath id="clip0_79_6">
<rect width="94" height="94" fill="white" transform="translate(3 2)"/>
</clipPath>
</defs>
</svg>
