<svg width="99" height="98" viewBox="0 0 99 98" fill="none" xmlns="http://www.w3.org/2000/svg">
<g clip-path="url(#clip0_79_6)">
<path d="M46.7646 7.86905C58.1336 0.620199 73.9361 3.84525 82.1631 15.1728L82.165 15.1855L82.4717 15.6142C85.4713 19.8108 87.0837 24.8405 87.083 29.9989C87.0796 31.453 86.9521 32.9034 86.7021 34.3368C86.1429 37.4186 84.967 40.3562 83.2451 42.9726L82.5986 43.955L83.1426 44.997C84.8577 48.2813 85.8077 51.9083 85.9238 55.6054L85.9355 56.3456C85.9371 57.7974 85.8074 59.2463 85.5479 60.6747L85.5469 60.6825C84.9837 63.8487 83.7644 66.8621 81.9678 69.5292C80.1712 72.1963 77.8367 74.4583 75.1143 76.1698L75.1016 76.1776L53.2451 90.1308L53.2441 90.1317C41.7806 97.4638 25.6953 94.0769 17.5537 82.4179L17.5479 82.4091L17.541 82.3993C15.6238 79.7163 14.2603 76.6779 13.5312 73.4618V73.4599L13.4023 72.8593C12.7967 69.851 12.7589 66.7107 13.2959 63.6757C13.8535 60.5915 15.0289 57.6518 16.751 55.0331L17.3994 54.0468L16.8496 53.0028C15.0064 49.5022 14.0363 45.6075 14.0225 41.6513C14.0249 40.1893 14.1545 38.7324 14.4102 37.3056L14.4111 37.3065C14.9823 34.1409 16.2072 31.1286 18.0088 28.4638C19.8104 25.799 22.1493 23.5396 24.874 21.83L24.8857 21.8222L46.7646 7.86905Z" fill="#FF3E00" stroke="#001E36" stroke-width="4"/>
<path d="M43.5515 84.7362C42.1143 85.1066 40.6487 85.2936 39.179 85.2943C36.3725 85.2938 33.6079 84.613 31.1221 83.3101C28.6364 82.0071 26.5035 80.121 24.9064 77.8132C22.9563 75.0834 21.9087 71.8121 21.9102 68.4573C21.9114 67.5114 21.9934 66.5682 22.1547 65.6424C22.2861 64.9458 22.4629 64.2627 22.6835 63.5994L23.0954 62.3451L24.2117 63.194C26.8027 65.096 29.6975 66.5446 32.773 67.4784L33.5838 67.7229L33.5074 68.5336V68.9544C33.5059 69.9688 33.8211 70.9583 34.4092 71.7847C34.8844 72.4882 35.5243 73.065 36.2731 73.465C37.0399 73.8695 37.868 74.0788 38.7053 74.0796C39.1473 74.0814 39.5881 74.025 40.0198 73.9115C40.4885 73.7887 40.9413 73.5906 41.366 73.3225L63.221 59.3004C63.8763 58.8842 64.4155 58.3089 64.7884 57.628C65.1613 56.9472 65.3558 56.183 65.3536 55.4067C65.3472 54.3922 65.0237 53.4051 64.4283 52.5838C63.9458 51.8894 63.3026 51.322 62.5534 50.9299C61.7862 50.5341 60.9597 50.3316 60.1248 50.3351C59.6828 50.3335 59.242 50.3902 58.8103 50.504C58.3436 50.6238 57.8932 50.8218 57.4723 51.0922L49.14 56.4165C47.7378 57.2999 46.2443 57.9558 44.6985 58.367C41.2565 59.2632 37.6223 59.0806 34.2874 57.8439C30.9526 56.6071 28.0781 54.3759 26.0528 51.4521C24.1044 48.7214 23.057 45.4507 23.0565 42.0961C23.058 41.1525 23.1402 40.211 23.3011 39.2813C23.6748 37.214 24.4739 35.247 25.6478 33.5048C26.8217 31.7627 28.3448 30.2834 30.1205 29.1609L51.999 15.2151C53.3719 14.3413 54.8694 13.6809 56.4405 13.2565C57.8692 12.8907 59.3381 12.7057 60.8129 12.7057C63.6253 12.6998 66.3971 13.376 68.8908 14.6764C71.3844 15.9768 73.5254 17.8626 75.1303 20.1721C77.0668 22.9093 78.1011 26.1825 78.0891 29.5354C78.0876 30.484 78.0054 31.4299 77.8438 32.3583C77.7129 33.0547 77.5366 33.7376 77.3165 34.4006L76.9038 35.6549L75.7876 34.8369C73.1988 32.9312 70.3033 31.4822 67.2262 30.5525L66.4155 30.3006L66.4919 29.4891V29.0691C66.4917 28.0525 66.1766 27.061 65.59 26.2307C65.1089 25.5364 64.4662 24.9693 63.7174 24.5784C62.952 24.1825 62.1272 23.9793 61.294 23.9813C60.856 23.9907 60.4201 24.0575 59.9941 24.1803C59.5248 24.2982 59.0719 24.4966 58.6495 24.7693L36.7702 38.7151C36.2514 39.039 35.7927 39.4862 35.4219 40.0296C35.0759 40.537 34.8337 41.1348 34.7147 41.7752C34.6608 42.0412 34.6273 42.3126 34.6148 42.586C34.6143 43.5979 34.9296 44.5847 35.5167 45.4089C35.9976 46.1032 36.64 46.6702 37.3886 47.0613C38.1542 47.4573 38.9793 47.6602 39.8128 47.6576C40.2547 47.6591 40.6955 47.6025 41.1273 47.4887C41.5968 47.3697 42.0499 47.1717 42.4734 46.9004L50.821 41.5454C52.2227 40.6604 53.7164 40.0044 55.2625 39.5949C56.6997 39.2249 58.1653 39.0378 59.635 39.0367C62.442 39.0363 65.2074 39.716 67.6944 41.0175C70.1814 42.3191 72.316 44.2038 73.9157 46.5105C75.1632 48.2586 76.0486 50.2385 76.5199 52.3338C76.9911 54.4291 77.0388 56.5974 76.66 58.7114C76.2885 60.7794 75.4902 62.7473 74.3161 64.4897C73.142 66.2322 71.6178 67.7109 69.8406 68.8318L48.0003 82.7776C46.5965 83.6652 45.0999 84.3238 43.5515 84.7362Z" fill="white"/>
</g>
<defs>
<clipPath id="clip0_79_6">
<rect width="94" height="94" fill="white" transform="translate(3 2)"/>
</clipPath>
</defs>
</svg>
