<svg width="99" height="99" viewBox="0 0 99 99" fill="none" xmlns="http://www.w3.org/2000/svg">
<g clip-path="url(#clip0_79_6)">
<rect x="4.5" y="3.5" width="91" height="91" rx="16.5" fill="#D9D9D9" stroke="#001E36" stroke-width="3"/>
<path d="M50 24C39.0665 24 32.2355 29.4426 29.5 40.3323C33.5987 34.889 38.3835 32.8479 43.8487 34.2089C46.9692 34.9835 49.1992 37.2371 51.6688 39.7344C55.6881 43.7969 60.3403 48.5 70.5 48.5C81.4329 48.5 88.2645 43.0568 91 32.1645C86.9 37.6105 82.1169 39.6527 76.6506 38.2911C73.5308 37.5159 71.3033 35.2629 68.8305 32.7656C64.8138 28.7031 60.1629 24 50 24ZM29.5 48.5C18.5671 48.5 11.7355 53.9432 9 64.8355C13.0996 59.3895 17.8825 57.3473 23.3487 58.7089C26.4692 59.4841 28.6992 61.7371 31.1688 64.2344C35.1881 68.2969 39.8403 73 50 73C60.9329 73 67.7645 67.5574 70.5 56.6677C66.4 62.1112 61.6169 64.1523 56.1506 62.7911C53.0308 62.0165 50.8033 59.7629 48.3305 57.2656C44.3138 53.2031 39.6629 48.5 29.5 48.5Z" fill="#38BDF8"/>
</g>
<defs>
<clipPath id="clip0_79_6">
<rect width="94" height="94" fill="white" transform="translate(3 2)"/>
</clipPath>
</defs>
</svg>
