<svg width="76" height="78" viewBox="0 0 76 78" fill="none" xmlns="http://www.w3.org/2000/svg">
<path d="M56.5938 2H19.4062C10.3453 2 3 9.64719 3 19.0805V57.7962C3 67.2295 10.3453 74.8767 19.4062 74.8767H56.5938C65.6547 74.8767 73 67.2295 73 57.7962V19.0805C73 9.64719 65.6547 2 56.5938 2Z" fill="#007ACC" stroke="#001E36" stroke-width="4"/>
<path d="M18.4797 38.68L18.4575 41.6645H27.5685V68.6172H34.0131V41.6645H43.124V38.7378C43.124 37.1183 43.091 35.7649 43.0464 35.7302C43.013 35.6841 37.4685 35.6607 30.7463 35.6724L18.513 35.7071L18.4797 38.68ZM59.4833 35.6223C61.2609 36.0852 62.6166 36.9065 63.861 38.2482C64.5055 38.9655 65.4609 40.2728 65.5388 40.585C65.561 40.6776 62.5165 42.8061 60.6722 43.9974C60.6054 44.0438 60.3386 43.7429 60.0386 43.2803C59.1387 41.9153 58.1943 41.3252 56.7497 41.2213C54.6276 41.0707 53.2609 42.2276 53.2721 44.1594C53.2721 44.7262 53.3498 45.0616 53.5721 45.5244C54.0386 46.5308 54.9054 47.1323 57.6277 48.3584C62.6387 50.6027 64.783 52.0833 66.1166 54.1885C67.6055 56.5368 67.9388 60.2848 66.9276 63.0726C65.8166 66.1033 63.0609 68.1623 59.183 68.845C57.9832 69.0648 55.1386 69.03 53.8499 68.7872C51.0387 68.2665 48.3721 66.8207 46.7277 64.9236C46.0832 64.1832 44.8276 62.2514 44.9055 62.1124C44.9386 62.0663 45.2276 61.8813 45.5497 61.6846C45.8609 61.4995 47.0388 60.7938 48.1498 60.1228L50.161 58.9081L50.5831 59.5561C51.1721 60.4929 52.4608 61.7771 53.2388 62.2049C55.4719 63.4313 58.5388 63.2577 60.0498 61.8465C60.6943 61.2334 60.9609 60.5971 60.9609 59.6602C60.9609 58.8156 60.8608 58.4455 60.4387 57.8093C59.8942 56.9997 58.7833 56.317 55.6275 54.8942C52.0165 53.2747 50.4609 52.2684 49.0388 50.6719C48.2165 49.7467 47.4386 48.2659 47.1165 47.0281C46.8499 45.9987 46.7832 43.419 46.9943 42.3779C47.7386 38.7458 50.3721 36.2124 54.172 35.4603C55.4055 35.2175 58.2719 35.31 59.4833 35.6223Z" fill="white"/>
</svg>
