<svg width="151" height="87" viewBox="0 0 151 87" fill="none" xmlns="http://www.w3.org/2000/svg">
<g clip-path="url(#clip0_471_4)">
<path d="M81.4087 49.5033H79.9407C74.03 49.5033 69.2385 54.2937 69.2385 60.2028V76.1288C69.2385 82.038 74.03 86.8283 79.9407 86.8283H81.4087C87.3193 86.8283 92.1109 82.038 92.1109 76.1288V60.2028C92.1109 54.2937 87.3193 49.5033 81.4087 49.5033Z" fill="#001E36"/>
<path d="M150.11 62.4884V63.7488L127.131 29.8129C127.142 23.5053 127.153 17.192 127.165 10.8788C127.165 4.896 132.174 0 138.287 0H138.915C145.039 0 150.037 4.896 150.037 10.8788C150.037 22.6986 150.227 31.331 150.11 62.4884Z" fill="#001E36"/>
<path d="M66.4873 17.1528C60.8785 34.4064 55.2697 51.6657 49.6553 68.9249L35.877 31.6839C38.6169 23.8918 41.3569 16.1053 44.0969 8.31312C45.8787 3.18184 50.4621 0 55.3201 0C56.6873 0 58.0825 0.240879 59.4329 0.778654C65.5964 3.21545 68.7735 10.5875 66.4873 17.1528Z" fill="#001E36"/>
<path d="M39.1607 86.0455C32.7001 88.4767 25.4552 85.0876 23.0626 78.511L0.772988 17.1822C-1.61398 10.6 1.71433 3.22803 8.18045 0.796839C14.641 -1.63436 21.8859 1.75475 24.2785 8.3313L46.5625 69.6601C48.9551 76.2367 45.6212 83.6143 39.1607 86.0455Z" fill="#001E36"/>
<path d="M92.1109 36.4511V36.0366C92.1109 29.7221 86.9908 24.6032 80.6747 24.6032C74.3587 24.6032 69.2386 29.7221 69.2386 36.0366V36.4511C69.2386 42.7656 74.3587 47.8844 80.6747 47.8844C86.9908 47.8844 92.1109 42.7656 92.1109 36.4511Z" fill="#001E36"/>
<path d="M145.269 84.4868C140.002 88.5089 132.583 87.2373 128.795 81.6411C116.205 63.0038 103.625 44.3665 91.0463 25.7348C90.514 24.9505 89.4493 23.4212 87.5443 22.4633C86.8495 22.116 84.9612 21.9088 82.5294 21.7967C81.3191 21.7407 79.9743 21.7071 78.5735 21.6959C77.7498 21.5838 76.9542 21.3766 76.2033 21.0853C72.1298 19.5336 69.2385 15.5899 69.2385 10.974C69.2385 7.9826 70.4488 5.27692 72.4099 3.31628C73.4802 2.25193 74.7633 1.40605 76.2033 0.857076C77.3352 0.420133 78.5623 0.173652 79.8454 0.151245C85.5047 0.156847 91.1695 0.156847 96.8232 0.156847C97.9494 0.156847 99.0308 0.369716 100.039 0.745039C102.415 1.51249 104.584 3.0698 106.153 5.36095C106.164 5.37215 106.169 5.38896 106.175 5.40016L147.936 66.9811C151.735 72.5717 150.524 80.4479 145.269 84.4868Z" fill="#001E36"/>
<path d="M78.2822 21.5502C79.683 21.5614 81.0277 21.595 82.238 21.651H79.7726C79.2683 21.651 78.7696 21.6174 78.2822 21.5502Z" fill="#001E36"/>
<path d="M105.861 5.2153C104.292 2.92416 102.124 1.36685 99.7481 0.599396C98.7395 0.224073 97.6581 0.0112037 96.5318 0.0112037C90.8782 0.0112037 85.2133 0.0112037 79.5541 0.00560183C79.6269 0 79.6998 0 79.7726 0H96.5991C100.527 0 103.962 2.08948 105.861 5.2153Z" fill="#001E36"/>
</g>
<defs>
<clipPath id="clip0_471_4">
<rect width="150.15" height="86.625" rx="4" fill="white"/>
</clipPath>
</defs>
</svg>
